<svg xmlns="http://www.w3.org/2000/svg" version="1.1" xmlns:xlink="http://www.w3.org/1999/xlink" xmlns:svgjs="http://svgjs.dev/svgjs" width="1000" height="1125" viewBox="0 0 1000 1125"><g transform="matrix(1,0,0,1,0,0)"><svg viewBox="0 0 320 360" data-background-color="#ff5858" preserveAspectRatio="xMidYMid meet" height="1125" width="1000" xmlns="http://www.w3.org/2000/svg" xmlns:xlink="http://www.w3.org/1999/xlink"><g id="tight-bounds" transform="matrix(1,0,0,1,0,0)"><svg viewBox="0 0 320 360" height="360" width="320"><g><svg></svg></g><g><svg viewBox="0 0 320 360" height="360" width="320"><g><path xmlns="http://www.w3.org/2000/svg" d="M39.474 120.804l2.852-5.236c22.696-41.686 66.871-69.977 117.674-69.972 50.817 0 95.006 28.305 117.697 70.005l2.852 5.241 8.173-31.337 31.03 7.961-2.654-4.792c-30.586-55.251-89.468-92.674-157.098-92.674-67.631 0-126.508 37.423-157.103 92.674l-2.654 4.787 31.063-7.956zM160 4.721c63.839 0 119.567 34.288 150.073 85.389l-24.731-6.341-6.417 24.608c-24.217-40.411-68.381-67.503-118.925-67.503-50.525 0-94.68 27.078-118.897 67.465l-6.412-24.575-24.764 6.341c30.506-51.101 86.238-85.384 150.073-85.384zM280.526 239.191l-2.852 5.236c-22.696 41.691-66.871 69.977-117.674 69.977-50.817 0-95.006-28.301-117.697-70.005l-2.852-5.236-8.173 31.332-31.035-7.961 2.654 4.792c30.591 55.246 89.468 92.674 157.103 92.674 67.631 0 126.513-37.427 157.103-92.674l2.654-4.787-31.063 7.956zM160 355.279c-63.839 0-119.567-34.288-150.073-85.389l24.727 6.346 6.421-24.609c24.217 40.402 68.381 67.499 118.925 67.499 50.529 0 94.68-27.078 118.901-67.47l6.408 24.575 24.764-6.341c-30.506 51.096-86.233 85.388-150.073 85.388z" fill="#ffffff" fill-rule="nonzero" stroke="none" stroke-width="1" stroke-linecap="butt" stroke-linejoin="miter" stroke-miterlimit="10" stroke-dasharray="" stroke-dashoffset="0" font-family="none" font-weight="none" font-size="none" text-anchor="none" style="mix-blend-mode: normal" data-fill-palette-color="tertiary"></path></g><g transform="matrix(1,0,0,1,64,96.67924528301887)"><svg viewBox="0 0 192 166.64150943396226" height="166.64150943396226" width="192"><g><svg viewBox="0 0 192 166.64150943396226" height="166.64150943396226" width="192"><g><svg viewBox="0 0 192 166.64150943396226" height="166.64150943396226" width="192"><g><svg viewBox="0 0 192 166.64150943396226" height="166.64150943396226" width="192"><g id="textblocktransform"><svg viewBox="0 0 192 166.64150943396226" height="166.64150943396226" width="192" id="textblock"><g><svg viewBox="0 0 192 166.64150943396226" height="166.64150943396226" width="192"><g transform="matrix(1,0,0,1,0,0)"><svg width="192" viewBox="0.699999988079071 -33.400001525878906 39.75 34.5" height="166.64150943396226" data-palette-color="#ffffff"><path d="M37.25-33.4Q39.1-33.05 39.68-32.83 40.25-32.6 40.45-32.15L40.45-32.15Q39.4-28.1 37.7-20.68 36-13.25 35.4-10.7L35.4-10.7Q34.3-5.6 33.35-1.65L33.35-1.65Q32.65 1.1 31.15 1.1L31.15 1.1Q26.55 1.1 26.55-1.05L26.55-1.05Q26.55-0.2 29.15-12.35L29.15-12.35 30.05-16.65 20.1-1.25Q19.3-0.25 17.75-0.25L17.75-0.25Q16.45-0.25 15.33-0.9 14.2-1.55 14.35-2.2L14.35-2.2 11.6-18.35 7.5-1.8Q7.15-0.35 6.43 0.15 5.7 0.65 3.7 0.65L3.7 0.65Q2.15 0.65 1.43 0.13 0.7-0.4 0.7-1.65L0.7-1.65Q0.7-2.2 0.85-2.7L0.85-2.7 7.7-29.75Q8.25-31.95 8.88-32.68 9.5-33.4 11.15-33.4L11.15-33.4Q12.5-33.4 13.55-33.1 14.6-32.8 14.65-32.2L14.65-32.2 14.65-32.1 18.65-7.25Q20.8-10.7 25.73-18.65 30.65-26.6 33.45-31.05L33.45-31.05Q33.95-32.3 34.58-32.68 35.2-33.05 36.02-33.2 36.85-33.35 37.25-33.4L37.25-33.4ZM26.55-1.05L26.55-1.05Z" opacity="1" transform="matrix(1,0,0,1,0,0)" fill="#ffffff" class="wordmark-text-0" data-fill-palette-color="primary" id="text-0"></path></svg></g></svg></g></svg></g></svg></g></svg></g></svg></g></svg></g></svg></g><defs></defs></svg><rect width="320" height="360" fill="none" stroke="none" visibility="hidden"></rect></g></svg></g></svg>